<svg xmlns="http://www.w3.org/2000/svg" xmlns:xlink="http://www.w3.org/1999/xlink" width="480" height="159" viewBox="0 0 480 159">
    <defs>
        <path id="a" d="M0 158.4h480V0H0z"/>
    </defs>
    <g fill="none" fill-rule="evenodd">
        <mask id="b" fill="#fff">
            <use xlink:href="#a"/>
        </mask>
        <path fill="#1A1919" d="M262.375 86.87H196.18V16.947h66.196c19.323 0 35.046 15.682 35.046 34.959 0 19.28-15.723 34.962-35.046 34.962zM310.4 51.906C310.4 25.447 288.898 4 262.375 4H183.2v125.6h12.98V99.818h66.195a48.88 48.88 0 0 0 7.095-.523l29.742 30.305h9.89v-8.29l-25.714-26.314C299.38 87.22 310.4 70.852 310.4 51.906zM33.524 86.335L63.598 27.51l30.078 58.825H33.524zM63.598 0L0 121.501v8.899h9.951L26.59 99.295h74.016l16.64 31.105h9.954v-8.899L63.598 0zM464.947 99.445c-9.306 11.029-23.271 18.057-38.865 18.057-27.946 0-50.686-22.564-50.686-50.302s22.74-50.302 50.686-50.302c16.193 0 30.622 7.582 39.91 19.347H481.6A63.73 63.73 0 0 0 426.082 4C390.912 4 362.4 32.296 362.4 67.2s28.511 63.2 63.682 63.2a63.732 63.732 0 0 0 54.77-30.955h-15.905M7.401 156.43c.773-.691 1.16-1.556 1.16-2.6v-.934l-4.173.622c-1.695.25-2.545.94-2.545 2.08 0 .502.25.936.75 1.309.503.372 1.139.56 1.908.56 1.16 0 2.127-.347 2.9-1.038zm1.16-4.467c0-.86-.298-1.576-.894-2.155-.596-.575-1.345-.86-2.24-.86-.604 0-1.175.119-1.711.357-.54.243-.934.485-1.184.738l-.338.354-.701-.618c.044-.04.104-.105.173-.188.072-.083.233-.228.487-.434.254-.202.524-.383.81-.542.286-.16.652-.3 1.103-.427A5.1 5.1 0 0 1 5.428 148c1.188 0 2.186.38 2.98 1.14.793.758 1.192 1.699 1.192 2.823v6.234H8.56v-1.667c-.031.055-.08.127-.152.21a6.2 6.2 0 0 1-.475.449 5.76 5.76 0 0 1-.798.57c-.286.17-.668.32-1.14.45a5.7 5.7 0 0 1-1.494.191c-1.063 0-1.945-.278-2.646-.839-.7-.557-1.055-1.211-1.055-1.964 0-.777.306-1.442.906-1.992.604-.546 1.422-.89 2.457-1.023l4.398-.619zM17.6 148.966h-.409c-.948 0-1.769.343-2.448 1.037-.682.69-1.023 1.578-1.023 2.67v5.727h-.92v-10.179h.92v1.697c.029-.056.064-.126.114-.214.05-.085.174-.24.37-.454.195-.221.415-.413.664-.586.245-.17.575-.325.991-.461.416-.133.86-.203 1.332-.203h.409v.966M21.582 149.519c1.053-1.01 2.297-1.519 3.719-1.519.53 0 1.04.072 1.527.217.49.148.891.325 1.21.528.317.202.596.401.847.604.252.199.428.376.53.531l.185.203-.793.63c-.028-.04-.075-.102-.134-.189a4.165 4.165 0 0 0-.424-.427 4.69 4.69 0 0 0-.699-.538 4.303 4.303 0 0 0-.977-.427 4.369 4.369 0 0 0-1.272-.185c-1.147 0-2.148.416-3.004 1.24-.856.832-1.284 1.838-1.284 3.02 0 1.18.428 2.188 1.288 3.012.86.832 1.865 1.248 3 1.248.706 0 1.35-.148 1.931-.448.581-.297.994-.593 1.237-.883l.338-.437.793.629-.18.228c-.075.101-.252.264-.523.499-.27.231-.557.441-.86.618-.302.181-.699.347-1.197.496a5.108 5.108 0 0 1-1.54.231c-1.433 0-2.673-.506-3.726-1.519C20.526 155.87 20 154.643 20 153.2s.526-2.669 1.582-3.681M32.974 149.824c.03-.056.072-.132.12-.23.057-.094.186-.257.397-.487.208-.226.434-.434.684-.619.245-.181.585-.35 1.011-.506a4.084 4.084 0 0 1 1.374-.226c1.201 0 2.205.423 3.02 1.264.812.838 1.22 1.906 1.22 3.19v6.19h-.985v-6.19c0-1.012-.314-1.842-.933-2.491-.623-.65-1.397-.974-2.322-.974-.981 0-1.823.362-2.529 1.09-.706.73-1.057 1.627-1.057 2.703v5.862H32v-15.2h.974v6.624M45.023 158.4h1.03v-10.648h-1.03V158.4zm.004-14.98a.806.806 0 0 1 .571-.22.8.8 0 0 1 .57.22c.156.15.232.336.232.56a.715.715 0 0 1-.231.551.78.78 0 0 1-.571.216.787.787 0 0 1-.57-.216.726.726 0 0 1-.228-.552c0-.223.076-.409.227-.56zM51.601 144h.802v3.549h2.193v.994h-2.193v6.978c0 .605.136 1.071.41 1.395.271.328.636.49 1.091.49.216 0 .428-.027.64-.078.211-.05.368-.104.472-.161l.184-.09v.999a2.502 2.502 0 0 1-1.296.324c-.76 0-1.351-.247-1.771-.744-.417-.49-.63-1.206-.63-2.135v-6.978H49.6v-.994h1.3a.634.634 0 0 0 .503-.247c.132-.162.198-.377.198-.643V144M59.021 150.065c-.779.752-1.201 1.623-1.264 2.618h7.686c-.055-1.085-.437-1.978-1.145-2.68-.709-.705-1.573-1.056-2.592-1.056-1.009 0-1.903.373-2.685 1.118zm-1.264 3.554c.055 1.042.478 1.942 1.272 2.702.79.763 1.72 1.146 2.78 1.146.408 0 .809-.061 1.202-.174.393-.115.716-.26.971-.437.26-.174.482-.35.675-.52.19-.178.338-.315.441-.424l.127-.195.645.611c-.041.054-.1.13-.17.228-.075.101-.242.264-.498.499a5.692 5.692 0 0 1-.812.618c-.285.181-.663.347-1.127.496-.47.155-.953.231-1.453.231-1.354 0-2.53-.506-3.52-1.519-.993-1.012-1.49-2.238-1.49-3.681 0-1.428.49-2.65 1.472-3.67.986-1.02 2.128-1.53 3.437-1.53 1.31 0 2.418.488 3.33 1.457.905.973 1.361 2.22 1.361 3.743v.42h-8.643zM71.182 149.519c1.055-1.01 2.296-1.519 3.72-1.519.526 0 1.037.072 1.527.217.487.148.891.325 1.205.528.318.202.597.401.852.604.247.199.424.376.53.531l.184.203-.793.63a3.161 3.161 0 0 1-.137-.189 4.438 4.438 0 0 0-.42-.427 4.722 4.722 0 0 0-.703-.538 4.223 4.223 0 0 0-.977-.427 4.358 4.358 0 0 0-1.268-.185c-1.15 0-2.15.416-3.006 1.24-.852.832-1.28 1.838-1.28 3.02 0 1.18.428 2.188 1.288 3.012.86.832 1.86 1.248 2.998 1.248.703 0 1.347-.148 1.927-.448.581-.297.993-.593 1.237-.883l.341-.437.793.629-.184.228c-.075.101-.248.264-.522.499-.271.231-.558.441-.86.618-.298.181-.699.347-1.197.496a5.097 5.097 0 0 1-1.535.231c-1.436 0-2.676-.506-3.728-1.519-1.048-1.012-1.574-2.238-1.574-3.681s.526-2.669 1.582-3.681M83.602 144h.8v3.549h2.193v.994h-2.193v6.978c0 .605.135 1.071.41 1.395.271.328.636.49 1.091.49.216 0 .428-.027.64-.078.212-.05.368-.104.473-.161l.184-.09v.999a2.505 2.505 0 0 1-1.297.324c-.76 0-1.352-.247-1.772-.744-.418-.49-.626-1.206-.626-2.135v-6.978H81.6v-.994h1.297a.634.634 0 0 0 .504-.247c.132-.162.201-.377.201-.643V144M97.415 156.387l-.117.222c-.05.096-.182.255-.39.476a4.348 4.348 0 0 1-.683.602c-.245.177-.58.344-1.011.491a4.195 4.195 0 0 1-1.382.222c-1.204 0-2.208-.41-3.016-1.23-.812-.82-1.216-1.857-1.216-3.113V148h.974v6.057c0 .986.313 1.798.932 2.434.627.639 1.397.956 2.326.956.982 0 1.823-.362 2.526-1.075.706-.716 1.057-1.595 1.057-2.64V148h.985v10.193h-.985v-1.806M108 148.966h-.405c-.953 0-1.771.343-2.454 1.037-.682.69-1.024 1.578-1.024 2.67v5.727h-.917v-10.179h.917v1.697c.029-.056.064-.126.114-.214.05-.085.174-.24.37-.454.195-.221.42-.413.665-.586.249-.17.58-.325.992-.461.416-.133.86-.203 1.337-.203H108v.966M111.821 150.065c-.782.752-1.201 1.623-1.264 2.618h7.686c-.055-1.085-.437-1.978-1.145-2.68-.709-.705-1.576-1.056-2.596-1.056-1.005 0-1.899.373-2.68 1.118zm-1.264 3.554c.055 1.042.482 1.942 1.272 2.702.79.763 1.716 1.146 2.777 1.146.411 0 .816-.061 1.205-.174.39-.115.716-.26.975-.437.256-.174.478-.35.668-.52.192-.178.34-.315.444-.424l.123-.195.649.611c-.045.054-.1.13-.175.228-.07.101-.233.264-.493.499a5.692 5.692 0 0 1-.812.618c-.282.181-.66.347-1.13.496a4.577 4.577 0 0 1-1.454.231c-1.354 0-2.525-.506-3.52-1.519-.99-1.012-1.486-2.238-1.486-3.681 0-1.428.493-2.65 1.472-3.67.983-1.02 2.128-1.53 3.437-1.53 1.31 0 2.418.488 3.326 1.457.909.973 1.365 2.22 1.365 3.743v.42h-8.643zM122.627 157.027a.794.794 0 0 1 .581-.227c.227 0 .422.076.565.227a.777.777 0 0 1 .227.571.777.777 0 0 1-.227.57.755.755 0 0 1-.565.232.797.797 0 0 1-.581-.231.793.793 0 0 1-.227-.571c0-.227.08-.419.227-.57M136 148.966h-.409c-.952 0-1.769.343-2.451 1.037-.682.69-1.02 1.578-1.02 2.67v5.727h-.92v-10.179h.92v1.697a2.02 2.02 0 0 1 .114-.214c.046-.085.174-.24.366-.454.199-.221.42-.413.664-.586.249-.17.58-.325.992-.461.419-.133.863-.203 1.335-.203H136v.966M140.625 150.065c-.783.752-1.202 1.623-1.265 2.618h7.683c-.055-1.085-.437-1.978-1.145-2.68-.709-.705-1.573-1.056-2.592-1.056-1.009 0-1.903.373-2.681 1.118zm-1.265 3.554c.052 1.042.479 1.942 1.269 2.702.793.763 1.716 1.146 2.78 1.146.408 0 .813-.061 1.202-.174.393-.115.716-.26.975-.437.256-.174.478-.35.668-.52a8.75 8.75 0 0 0 .444-.424l.127-.195.645.611-.175.228c-.07.101-.233.264-.493.499a5.692 5.692 0 0 1-.812.618c-.282.181-.66.347-1.13.496a4.57 4.57 0 0 1-1.45.231c-1.354 0-2.53-.506-3.523-1.519-.99-1.012-1.487-2.238-1.487-3.681 0-1.428.493-2.65 1.472-3.67.983-1.02 2.128-1.53 3.437-1.53 1.31 0 2.418.488 3.326 1.457.913.973 1.365 2.22 1.365 3.743v.42h-8.64zM152.174 150.021c.027-.055.068-.13.121-.225.053-.092.185-.25.393-.476.208-.221.438-.424.684-.605.249-.177.585-.343 1.012-.494.43-.147.887-.221 1.375-.221 1.2 0 2.21.413 3.021 1.235.816.82 1.22 1.863 1.22 3.117v6.048h-.986v-6.048c0-.989-.31-1.8-.933-2.434-.623-.635-1.397-.952-2.322-.952-.986 0-1.828.354-2.53 1.066-.703.712-1.055 1.59-1.055 2.64v5.728h-.974v-10.179h.974v1.8M172.184 150.188c-.829-.825-1.823-1.24-2.976-1.24-1.161 0-2.156.415-2.985 1.24-.836.831-1.25 1.837-1.25 3.02 0 1.178.414 2.187 1.25 3.011.83.832 1.824 1.248 2.985 1.248 1.153 0 2.147-.416 2.976-1.248.83-.824 1.244-1.833 1.244-3.012 0-1.182-.415-2.188-1.244-3.02zm-6.647-.67c1.025-1.008 2.246-1.518 3.663-1.518 1.413 0 2.634.51 3.663 1.519 1.025 1.012 1.537 2.238 1.537 3.681s-.512 2.669-1.537 3.681c-1.03 1.013-2.25 1.519-3.663 1.519-1.417 0-2.638-.506-3.663-1.519-1.025-1.012-1.537-2.238-1.537-3.681s.512-2.669 1.537-3.681zM180.25 158.4L176 148h1.089l3.707 9.1 3.707-9.1h1.097l-4.261 10.4h-1.09M193.797 156.43c.773-.691 1.164-1.556 1.164-2.6v-.934l-4.177.622c-1.695.25-2.545.94-2.545 2.08 0 .502.25.936.753 1.309.504.372 1.136.56 1.905.56 1.164 0 2.13-.347 2.9-1.038zm1.164-4.467c0-.86-.298-1.576-.898-2.155-.592-.575-1.341-.86-2.24-.86-.6 0-1.171.119-1.711.357-.54.243-.935.485-1.184.738l-.339.354-.7-.618c.044-.04.104-.105.177-.188a5.873 5.873 0 0 1 1.293-.976c.286-.16.656-.3 1.103-.427a5.122 5.122 0 0 1 1.362-.188c1.192 0 2.186.38 2.98 1.14.797.758 1.196 1.699 1.196 2.823v6.234h-1.04v-1.667c-.035.055-.084.127-.156.21a6.2 6.2 0 0 1-1.269 1.02c-.29.17-.668.318-1.14.448-.47.127-.97.192-1.498.192-1.063 0-1.945-.278-2.646-.839-.7-.557-1.051-1.211-1.051-1.964 0-.777.302-1.442.906-1.992.6-.546 1.422-.89 2.453-1.023l4.402-.619zM199.601 144h.802v3.549h2.193v.994h-2.193v6.978c0 .605.136 1.071.41 1.395.271.328.633.49 1.091.49.216 0 .428-.027.64-.078.211-.05.368-.104.472-.161l.184-.09v.999a2.502 2.502 0 0 1-1.296.324c-.76 0-1.351-.247-1.771-.744-.42-.49-.63-1.206-.63-2.135v-6.978H197.6v-.994h1.3a.634.634 0 0 0 .503-.247c.132-.162.198-.377.198-.643V144M206.627 158.4h1.027v-10.648h-1.027V158.4zm.004-14.98a.81.81 0 0 1 .569-.22c.23 0 .418.077.57.22.154.15.23.336.23.56a.716.716 0 0 1-.23.551.778.778 0 0 1-.57.216.79.79 0 0 1-.57-.216.73.73 0 0 1-.23-.552c0-.223.08-.409.23-.56zM219.381 150.188c-.825-.825-1.819-1.24-2.975-1.24-1.153 0-2.147.415-2.984 1.24-.832.831-1.246 1.837-1.246 3.02 0 1.178.414 2.187 1.246 3.011.837.832 1.831 1.248 2.984 1.248 1.156 0 2.15-.416 2.975-1.248.833-.824 1.247-1.833 1.247-3.012 0-1.182-.414-2.188-1.247-3.02zm-6.64-.67c1.028-1.008 2.248-1.518 3.657-1.518 1.416 0 2.637.51 3.661 1.519 1.029 1.012 1.541 2.238 1.541 3.681s-.512 2.669-1.54 3.681c-1.025 1.013-2.246 1.519-3.662 1.519-1.409 0-2.63-.506-3.657-1.519-1.025-1.012-1.541-2.238-1.541-3.681s.516-2.669 1.54-3.681zM226.578 150.021a2.87 2.87 0 0 1 .12-.225c.05-.092.186-.25.39-.476a5.29 5.29 0 0 1 .687-.605c.245-.177.58-.343 1.011-.494a4.187 4.187 0 0 1 1.374-.221c1.197 0 2.209.413 3.02 1.235.816.82 1.22 1.863 1.22 3.117v6.048h-.99v-6.048c0-.989-.305-1.8-.932-2.434-.619-.635-1.396-.952-2.318-.952-.985 0-1.827.354-2.529 1.066-.702.712-1.053 1.59-1.053 2.64v5.728h-.978v-10.179h.978v1.8M237.827 157.027a.794.794 0 0 1 .581-.227.777.777 0 0 1 .792.798.777.777 0 0 1-.227.57.761.761 0 0 1-.565.232.797.797 0 0 1-.581-.231.793.793 0 0 1-.227-.571c0-.227.08-.419.227-.57M247.986 149.519c1.051-1.01 2.292-1.519 3.716-1.519.53 0 1.037.072 1.527.217.49.148.891.325 1.209.528.314.202.597.401.844.604.255.199.428.376.53.531l.188.203-.793.63c-.031-.04-.074-.102-.137-.189a4.438 4.438 0 0 0-.42-.427 5.13 5.13 0 0 0-.699-.538 4.339 4.339 0 0 0-.98-.427 4.339 4.339 0 0 0-1.269-.185c-1.146 0-2.146.416-3.002 1.24-.86.832-1.287 1.838-1.287 3.02 0 1.18.431 2.188 1.29 3.012.86.832 1.861 1.248 3 1.248.706 0 1.35-.148 1.926-.448.585-.297.993-.593 1.237-.883l.341-.437.793.629c-.043.054-.106.13-.18.228-.079.101-.252.264-.523.499a6.478 6.478 0 0 1-.86.618c-.301.181-.702.347-1.196.496a5.122 5.122 0 0 1-1.539.231c-1.432 0-2.676-.506-3.724-1.519-1.052-1.012-1.578-2.238-1.578-3.681s.53-2.669 1.586-3.681M265.784 150.188c-.829-.825-1.823-1.24-2.98-1.24s-2.152.415-2.985 1.24c-.832.831-1.247 1.837-1.247 3.02 0 1.178.415 2.187 1.247 3.011.833.832 1.828 1.248 2.985 1.248 1.157 0 2.151-.416 2.98-1.248.826-.824 1.24-1.833 1.24-3.012 0-1.182-.414-2.188-1.24-3.02zm-6.647-.67c1.025-1.008 2.246-1.518 3.663-1.518 1.413 0 2.63.51 3.659 1.519 1.025 1.012 1.541 2.238 1.541 3.681s-.516 2.669-1.541 3.681c-1.029 1.013-2.246 1.519-3.659 1.519-1.417 0-2.638-.506-3.663-1.519-1.028-1.012-1.537-2.238-1.537-3.681s.509-2.669 1.537-3.681zM272.174 150.021c.03-.055.072-.13.121-.225.057-.092.185-.25.393-.476.212-.221.438-.424.687-.605.246-.177.586-.343 1.013-.494a4.168 4.168 0 0 1 1.37-.221c1.205 0 2.21.413 3.026 1.235.812.82 1.216 1.863 1.216 3.117v6.048h-.982v-6.048c0-.989-.313-1.8-.933-2.434-.627-.635-1.397-.952-2.326-.952-.982 0-1.825.354-2.53 1.066-.703.712-1.055 1.59-1.055 2.64v5.728h-.974v-10.179h.974v1.8M289.346 150.195a1.298 1.298 0 0 1-.11-.137 2.237 2.237 0 0 0-.299-.304 3.956 3.956 0 0 0-.486-.376 2.76 2.76 0 0 0-.678-.3 2.927 2.927 0 0 0-.87-.13c-.704 0-1.267.17-1.691.517-.424.343-.634.763-.634 1.247 0 .427.2.778.604 1.056.402.278.888.492 1.46.647.567.149 1.134.326 1.702.521.564.199 1.05.495 1.452.893.405.402.604.922.604 1.566 0 .86-.328 1.573-.98 2.144-.656.575-1.53.861-2.62.861-.435 0-.855-.054-1.256-.163a3.89 3.89 0 0 1-1.021-.412 5.886 5.886 0 0 1-1.18-.918l-.143-.163.737-.73c.081.108.195.242.35.4.151.16.475.377.965.644.498.275 1.01.409 1.548.409.822 0 1.47-.195 1.942-.59.472-.394.707-.885.707-1.482 0-.46-.202-.835-.604-1.117-.405-.286-.892-.507-1.466-.666a38.335 38.335 0 0 1-1.707-.52 3.598 3.598 0 0 1-1.448-.872c-.401-.394-.6-.897-.6-1.508 0-.701.317-1.33.954-1.884.63-.55 1.408-.828 2.325-.828.597 0 1.157.123 1.688.365.53.246.917.485 1.16.723l.332.377-.737.73M294.801 144h.802v3.549h2.193v.994h-2.193v6.978c0 .605.136 1.071.41 1.395.271.328.636.49 1.091.49.216 0 .428-.027.64-.078.211-.05.368-.104.472-.161l.184-.09v.999a2.502 2.502 0 0 1-1.296.324c-.76 0-1.351-.247-1.771-.744-.42-.49-.63-1.206-.63-2.135v-6.978H292.8v-.994h1.3a.634.634 0 0 0 .503-.247c.132-.162.198-.377.198-.643V144M307.2 148.966h-.412c-.948 0-1.764.343-2.446 1.037-.682.69-1.022 1.578-1.022 2.67v5.727h-.92v-10.179h.92v1.697c.028-.056.063-.126.113-.214.05-.085.174-.24.37-.454.198-.221.415-.413.663-.586.245-.17.575-.325.99-.461a4.382 4.382 0 0 1 1.332-.203h.412v.966M318.21 156.387c-.026.056-.063.13-.112.222-.053.096-.178.255-.39.476a4.185 4.185 0 0 1-.683.602c-.245.177-.585.344-1.011.491a4.201 4.201 0 0 1-1.386.222c-1.197 0-2.204-.41-3.016-1.23-.808-.82-1.212-1.857-1.212-3.113V148h.974v6.057c0 .986.31 1.798.936 2.434.62.639 1.393.956 2.318.956.986 0 1.827-.362 2.53-1.075.702-.716 1.053-1.595 1.053-2.64V148h.989v10.193h-.99v-1.806M324.782 149.519c1.053-1.01 2.297-1.519 3.719-1.519.53 0 1.04.072 1.527.217.49.148.891.325 1.21.528.317.202.596.401.847.604.252.199.428.376.53.531l.185.203-.793.63c-.028-.04-.075-.102-.134-.189a4.165 4.165 0 0 0-.424-.427 4.69 4.69 0 0 0-.699-.538 4.303 4.303 0 0 0-.977-.427 4.369 4.369 0 0 0-1.272-.185c-1.147 0-2.148.416-3.004 1.24-.856.832-1.284 1.838-1.284 3.02 0 1.18.428 2.188 1.288 3.012.86.832 1.865 1.248 3 1.248.706 0 1.35-.148 1.931-.448.581-.297.994-.593 1.237-.883l.338-.437.793.629-.18.228c-.075.101-.252.264-.523.499-.27.231-.557.441-.86.618-.298.181-.699.347-1.197.496a5.108 5.108 0 0 1-1.54.231c-1.433 0-2.673-.506-3.726-1.519-1.048-1.012-1.574-2.238-1.574-3.681s.526-2.669 1.582-3.681M336.401 144h.802v3.549h2.193v.994h-2.193v6.978c0 .605.136 1.071.407 1.395.274.328.636.49 1.094.49.216 0 .428-.027.64-.078.211-.05.368-.104.472-.161l.184-.09v.999a2.502 2.502 0 0 1-1.296.324c-.76 0-1.351-.247-1.771-.744-.42-.49-.63-1.206-.63-2.135v-6.978H334.4v-.994h1.3a.622.622 0 0 0 .5-.247c.135-.162.201-.377.201-.643V144M343.423 158.4h1.027v-10.648h-1.027V158.4zm.008-14.98a.803.803 0 0 1 .569-.22c.23 0 .418.077.57.22.154.15.23.336.23.56a.716.716 0 0 1-.23.551.778.778 0 0 1-.57.216.784.784 0 0 1-.57-.216.73.73 0 0 1-.23-.552c0-.223.08-.409.23-.56zM356.181 150.188c-.828-.825-1.819-1.24-2.975-1.24-1.157 0-2.151.415-2.984 1.24-.832.831-1.246 1.837-1.246 3.02 0 1.178.414 2.187 1.246 3.011.833.832 1.827 1.248 2.984 1.248 1.156 0 2.147-.416 2.975-1.248.833-.824 1.247-1.833 1.247-3.012 0-1.182-.414-2.188-1.247-3.02zm-6.64-.67c1.024-1.008 2.248-1.518 3.657-1.518 1.416 0 2.637.51 3.661 1.519 1.029 1.012 1.541 2.238 1.541 3.681s-.512 2.669-1.54 3.681c-1.025 1.013-2.246 1.519-3.662 1.519-1.409 0-2.633-.506-3.657-1.519-1.025-1.012-1.541-2.238-1.541-3.681s.516-2.669 1.54-3.681zM361.778 150.021c.03-.055.068-.13.12-.225.053-.092.186-.25.393-.476a5.02 5.02 0 0 1 .684-.605c.245-.177.585-.343 1.015-.494a4.165 4.165 0 0 1 1.37-.221c1.205 0 2.209.413 3.024 1.235.812.82 1.216 1.863 1.216 3.117v6.048h-.985v-6.048c0-.989-.31-1.8-.933-2.434-.623-.635-1.393-.952-2.322-.952-.981 0-1.823.354-2.529 1.066-.702.712-1.053 1.59-1.053 2.64v5.728h-.978v-10.179h.978v1.8" mask="url(#b)"/>
    </g>
</svg>
